<svg width="100%" height="100%" viewBox="0 0 75 75" fill="none" xmlns="http://www.w3.org/2000/svg">
	<rect x="0.5" y="0.5" width="74" height="74" rx="37" fill="#F9F5F7" />
	<rect x="0.5" y="0.5" width="74" height="74" rx="37" stroke="#12020A" />
	<path d="M27.8491 34.6235H47.0259" stroke="#12020A" stroke-width="1.5" stroke-linecap="round" />
	<path d="M34.9719 49.4168H39.9031" stroke="#12020A" stroke-width="1.5" stroke-linecap="round" />
	<path
		d="M37.4375 34.6235L37.4375 49.417"
		stroke="#12020A"
		stroke-width="1.5"
		stroke-linecap="square"
	/>
	<path
		d="M59.0504 48.417V26.583C59.0504 26.0307 58.6027 25.583 58.0504 25.583H55.8042C55.2519 25.583 54.8042 26.0307 54.8042 26.583V39.7463C54.8042 40.8508 53.9087 41.7463 52.8042 41.7463H47.4897C46.3852 41.7463 45.4897 42.6417 45.4897 43.7463V48.417C45.4897 48.9692 45.9375 49.417 46.4897 49.417H58.0504C58.6027 49.417 59.0504 48.9692 59.0504 48.417Z"
		stroke="#12020A"
		stroke-width="1.5"
		stroke-linejoin="round"
	/>
	<path
		d="M15.9498 48.417V26.583C15.9498 26.0307 16.3975 25.583 16.9498 25.583H19.1961C19.7484 25.583 20.1961 26.0307 20.1961 26.583V39.7463C20.1961 40.8508 21.0915 41.7463 22.1961 41.7463H27.5105C28.6151 41.7463 29.5105 42.6417 29.5105 43.7463V48.417C29.5105 48.9692 29.0628 49.417 28.5105 49.417H16.9498C16.3975 49.417 15.9498 48.9692 15.9498 48.417Z"
		stroke="#12020A"
		stroke-width="1.5"
		stroke-linejoin="round"
	/>
	<path
		d="M31.4104 29.6923V33.8016H33.3281V29.6923H31.4104Z"
		fill="#12020A"
		stroke="#12020A"
		stroke-width="0.5"
		stroke-linejoin="round"
	/>
	<path
		d="M31.6843 29.1444V29.6923H33.0541V29.1444H31.6843Z"
		stroke="#12020A"
		stroke-width="0.5"
		stroke-linejoin="round"
	/>
	<path
		d="M32.6191 28.3225C32.6191 28.1845 32.5072 28.0725 32.3691 28.0725C32.2311 28.0725 32.1191 28.1845 32.1191 28.3225L32.6191 28.3225ZM32.1191 28.3225L32.1191 29.3225L32.6191 29.3225L32.6191 28.3225L32.1191 28.3225Z"
		fill="#12020A"
	/>
	<path
		d="M34 29.6923V33.8016H35.9177V29.6923H34Z"
		stroke="#12020A"
		stroke-width="0.5"
		stroke-linejoin="round"
	/>
	<path
		d="M34.2739 29.1444V29.6923H35.6437V29.1444H34.2739Z"
		stroke="#12020A"
		stroke-width="0.5"
		stroke-linejoin="round"
	/>
	<path
		d="M35.2087 28.3225C35.2087 28.1844 35.0968 28.0725 34.9587 28.0725C34.8207 28.0725 34.7087 28.1844 34.7087 28.3225L35.2087 28.3225ZM34.7087 28.3225L34.7087 29.3225L35.2087 29.3225L35.2087 28.3225L34.7087 28.3225Z"
		fill="#12020A"
	/>
	<path
		d="M37 33.8017L37.274 32.1579H38.0958L38.3698 33.8017H37Z"
		fill="#12020A"
		stroke="#12020A"
		stroke-width="0.5"
		stroke-linejoin="round"
	/>
	<path
		d="M37.2739 31.61V31.3361H38.0958V31.61H37.2739Z"
		stroke="#12020A"
		stroke-width="0.5"
		stroke-linejoin="round"
	/>
	<path
		d="M39 33.8017L39.274 32.1579H40.0958L40.3698 33.8017H39Z"
		stroke="#12020A"
		stroke-width="0.5"
		stroke-linejoin="round"
	/>
	<path
		d="M39.2739 31.61V31.3361H40.0958V31.61H39.2739Z"
		stroke="#12020A"
		stroke-width="0.5"
		stroke-linejoin="round"
	/>
</svg>
