<svg width="100%" height="100%" viewBox="0 0 30 30" fill="none" xmlns="http://www.w3.org/2000/svg">
<rect x="0.5" y="0.499023" width="29" height="29" rx="14.5" fill="#F9F5F7"/>
<rect x="0.5" y="0.499023" width="29" height="29" rx="14.5" stroke="#12020A"/>
<path d="M10.5217 13.6643H19.4203" stroke="#12020A" stroke-linecap="round"/>
<path d="M13.8268 20.5288H16.115" stroke="#12020A" stroke-linecap="round"/>
<path d="M14.9711 13.6643L14.9711 20.5289" stroke="#12020A" stroke-linecap="square"/>
<path d="M25 19.5289V10.4544C25 9.91033 24.5589 9.46924 24.0148 9.46924C23.4707 9.46924 23.0296 9.91033 23.0296 10.4544V15.9694C23.0296 16.5217 22.5819 16.9694 22.0296 16.9694H19.7075C19.1552 16.9694 18.7075 17.4172 18.7075 17.9694V19.5289C18.7075 20.0812 19.1552 20.5289 19.7075 20.5289H24C24.5523 20.5289 25 20.0812 25 19.5289Z" stroke="#12020A" stroke-linejoin="round"/>
<path d="M4.99999 19.5289V10.4544C4.99999 9.91033 5.44108 9.46924 5.98519 9.46924C6.5293 9.46924 6.97039 9.91033 6.97039 10.4544V15.9694C6.97039 16.5217 7.4181 16.9694 7.97039 16.9694H10.2925C10.8448 16.9694 11.2925 17.4172 11.2925 17.9694V19.5289C11.2925 20.0812 10.8448 20.5289 10.2925 20.5289H5.99999C5.44771 20.5289 4.99999 20.0812 4.99999 19.5289Z" stroke="#12020A" stroke-linejoin="round"/>
<path d="M12.1745 11.376V13.2828H13.0644V11.376H12.1745Z" fill="#12020A" stroke="#12020A" stroke-width="0.25" stroke-linejoin="round"/>
<path d="M12.3016 11.1218V11.3761H12.9372V11.1218H12.3016Z" stroke="#12020A" stroke-width="0.25" stroke-linejoin="round"/>
<path d="M12.7445 10.7405C12.7445 10.6714 12.6885 10.6155 12.6195 10.6155C12.5505 10.6155 12.4945 10.6714 12.4945 10.7405L12.7445 10.7405ZM12.4945 10.7405L12.4945 11.2045L12.7445 11.2045L12.7445 10.7405L12.4945 10.7405Z" fill="#12020A"/>
<path d="M13.516 11.3762V13.2831H14.4058V11.3762H13.516Z" stroke="#12020A" stroke-width="0.25" stroke-linejoin="round"/>
<path d="M13.6434 11.1218V11.3761H14.279V11.1218H13.6434Z" stroke="#12020A" stroke-width="0.25" stroke-linejoin="round"/>
<path d="M14.0862 10.7405C14.0862 10.6714 14.0303 10.6155 13.9612 10.6155C13.8922 10.6155 13.8362 10.6714 13.8362 10.7405L14.0862 10.7405ZM13.8362 10.7405L13.8362 11.2045L14.0862 11.2045L14.0862 10.7405L13.8362 10.7405Z" fill="#12020A"/>
<path d="M15.4131 13.283L15.5402 12.5203H15.9216L16.0487 13.283H15.4131Z" fill="#12020A" stroke="#12020A" stroke-width="0.25" stroke-linejoin="round"/>
<path d="M15.5402 12.266V12.1389H15.9216V12.266H15.5402Z" stroke="#12020A" stroke-width="0.25" stroke-linejoin="round"/>
<path d="M16.3411 13.283L16.4682 12.5203H16.8496L16.9767 13.283H16.3411Z" stroke="#12020A" stroke-width="0.25" stroke-linejoin="round"/>
<path d="M16.4683 12.266V12.1389H16.8496V12.266H16.4683Z" stroke="#12020A" stroke-width="0.25" stroke-linejoin="round"/>
</svg>
