<svg width="100%" height="100%" viewBox="0 0 30 30" fill="none" xmlns="http://www.w3.org/2000/svg">
  <rect x="0.5" y="0.499023" width="29" height="29" rx="14.5" fill="#F9F5F7"/>
  <rect x="0.5" y="0.499023" width="29" height="29" rx="14.5" stroke="#12020A"/>
  <path d="M8.92222 9.8805C8.92222 9.25088 9.03333 8.83606 9.31481 8.55458C9.62593 8.25088 10.063 8.10273 11.1593 7.93976C11.9963 7.82125 12.3889 7.73236 12.5815 7.54717C12.7148 7.41384 12.7667 7.22125 12.7667 6.88791C12.7667 6.19162 12.5667 6.03606 11.4111 6.03606C10.2481 6.03606 10.0481 6.19162 10.0481 6.96939V7.0805H9.02593V6.8731C9.02593 5.54717 9.46296 5.12495 11.4185 5.12495C13.3519 5.12495 13.8111 5.53976 13.8111 6.86569C13.8111 7.50273 13.7074 7.91754 13.4185 8.19902C13.1074 8.50273 12.6556 8.65088 11.5889 8.80643C10.7296 8.93236 10.337 9.01384 10.1519 9.19902C10.0185 9.33236 9.97407 9.52495 9.97407 9.8731V10.0953H13.8407V10.999H8.92222V9.8805ZM17.5249 11.1101C15.1916 11.1101 14.6804 10.4509 14.6804 8.11754C14.6804 5.78421 15.1916 5.12495 17.5175 5.12495C19.5323 5.12495 20.0953 5.68791 20.0953 7.03606V7.05828H19.0656V7.03606C19.0656 6.28791 18.7693 6.05088 17.5101 6.05088C15.9471 6.05088 15.7397 6.28791 15.7397 8.11754C15.7397 9.93976 15.9471 10.1842 17.5249 10.1842C18.9397 10.1842 19.1323 9.89532 19.1323 9.13236V8.73236H17.1767V7.83606H20.1471V9.11754C20.1471 10.5398 19.6138 11.1101 17.5249 11.1101Z" fill="#FBBA3A"/>
  <g>
    <path d="M17.9757 19.2832H17.2315C17.1347 19.2832 17.0565 19.3614 17.0565 19.4582V20.6162C17.0565 20.7129 17.1347 20.7912 17.2315 20.7912H17.9757C18.0725 20.7912 18.1507 20.7129 18.1507 20.6162V19.4582C18.1507 19.3614 18.0725 19.2832 17.9757 19.2832ZM17.8007 20.4412H17.4064V19.6332H17.8007V20.4412Z" fill="#12020A"/>
    <path d="M17.9757 15.9912H17.2315C17.1347 15.9912 17.0565 16.0694 17.0565 16.1662V17.3242C17.0565 17.4209 17.1347 17.4992 17.2315 17.4992H17.9757C18.0725 17.4992 18.1507 17.4209 18.1507 17.3242V16.1662C18.1507 16.0696 18.0725 15.9912 17.9757 15.9912ZM17.8007 17.1494H17.4065V16.3414H17.8007V17.1494Z" fill="#12020A"/>
    <path d="M16.2469 19.2832H15.5026C15.4059 19.2832 15.3276 19.3614 15.3276 19.4582V20.6162C15.3276 20.7129 15.4059 20.7912 15.5026 20.7912H16.2469C16.3437 20.7912 16.4219 20.7129 16.4219 20.6162V19.4582C16.4219 19.3614 16.3437 19.2832 16.2469 19.2832ZM16.0719 20.4412H15.6776V19.6332H16.0719V20.4412Z" fill="#12020A"/>
    <path d="M16.2469 15.9912H15.5026C15.4059 15.9912 15.3276 16.0694 15.3276 16.1662V17.3242C15.3276 17.4209 15.4059 17.4992 15.5026 17.4992H16.2469C16.3437 17.4992 16.4219 17.4209 16.4219 17.3242V16.1662C16.4219 16.0696 16.3437 15.9912 16.2469 15.9912ZM16.0719 17.1494H15.6776V16.3414H16.0719V17.1494Z" fill="#12020A"/>
    <path d="M14.5178 19.2832H13.7736C13.6768 19.2832 13.5986 19.3614 13.5986 19.4582V20.6162C13.5986 20.7129 13.6768 20.7912 13.7736 20.7912H14.5178C14.6146 20.7912 14.6928 20.7129 14.6928 20.6162V19.4582C14.6928 19.3614 14.6146 19.2832 14.5178 19.2832ZM14.3428 20.4412H13.9486V19.6332H14.3428V20.4412Z" fill="#12020A"/>
    <path d="M14.5178 15.9912H13.7736C13.6768 15.9912 13.5986 16.0694 13.5986 16.1662V17.3242C13.5986 17.4209 13.6768 17.4992 13.7736 17.4992H14.5178C14.6146 17.4992 14.6928 17.4209 14.6928 17.3242V16.1662C14.6928 16.0696 14.6146 15.9912 14.5178 15.9912ZM14.3428 17.1494H13.9486V16.3414H14.3428V17.1494Z" fill="#12020A"/>
    <path d="M12.7891 19.2832H12.0448C11.948 19.2832 11.8698 19.3614 11.8698 19.4582V20.6162C11.8698 20.7129 11.948 20.7912 12.0448 20.7912H12.7891C12.8858 20.7912 12.9641 20.7129 12.9641 20.6162V19.4582C12.9641 19.3614 12.8858 19.2832 12.7891 19.2832ZM12.6141 20.4412H12.2198V19.6332H12.6141V20.4412Z" fill="#12020A"/>
    <path d="M14.5178 21.3674H13.7736C13.6768 21.3674 13.5986 21.4457 13.5986 21.5424V22.7004C13.5986 22.7972 13.6768 22.8754 13.7736 22.8754H14.5178C14.6146 22.8754 14.6928 22.7972 14.6928 22.7004V21.5424C14.6928 21.4457 14.6146 21.3674 14.5178 21.3674ZM14.3428 22.5254H13.9486V21.7174H14.3428V22.5254Z" fill="#12020A"/>
    <path d="M12.7891 21.3674H12.0448C11.948 21.3674 11.8698 21.4457 11.8698 21.5424V22.7004C11.8698 22.7972 11.948 22.8754 12.0448 22.8754H12.7891C12.8858 22.8754 12.9641 22.7972 12.9641 22.7004V21.5424C12.9641 21.4457 12.8858 21.3674 12.7891 21.3674ZM12.6141 22.5254H12.2198V21.7174H12.6141V22.5254Z" fill="#12020A"/>
    <path d="M12.7891 15.9912H12.0448C11.948 15.9912 11.8698 16.0694 11.8698 16.1662V17.3242C11.8698 17.4209 11.948 17.4992 12.0448 17.4992H12.7891C12.8858 17.4992 12.9641 17.4209 12.9641 17.3242V16.1662C12.9641 16.0696 12.8858 15.9912 12.7891 15.9912ZM12.6141 17.1494H12.2198V16.3414H12.6141V17.1494Z" fill="#12020A"/>
    <path d="M17.9757 13.9133H17.2315C17.1347 13.9133 17.0565 13.9916 17.0565 14.0883V15.2463C17.0565 15.3431 17.1347 15.4213 17.2315 15.4213H17.9757C18.0725 15.4213 18.1507 15.3431 18.1507 15.2463V14.0883C18.1507 13.9917 18.0725 13.9133 17.9757 13.9133ZM17.8007 15.0715H17.4065V14.2635H17.8007V15.0715Z" fill="#12020A"/>
    <path d="M16.2469 13.9133H15.5026C15.4059 13.9133 15.3276 13.9916 15.3276 14.0883V15.2463C15.3276 15.3431 15.4059 15.4213 15.5026 15.4213H16.2469C16.3437 15.4213 16.4219 15.3431 16.4219 15.2463V14.0883C16.4219 13.9917 16.3437 13.9133 16.2469 13.9133ZM16.0719 15.0715H15.6776V14.2635H16.0719V15.0715Z" fill="#12020A"/>
    <path d="M14.5178 13.9133H13.7736C13.6768 13.9133 13.5986 13.9916 13.5986 14.0883V15.2463C13.5986 15.3431 13.6768 15.4213 13.7736 15.4213H14.5178C14.6146 15.4213 14.6928 15.3431 14.6928 15.2463V14.0883C14.6928 13.9917 14.6146 13.9133 14.5178 13.9133ZM14.3428 15.0715H13.9486V14.2635H14.3428V15.0715Z" fill="#12020A"/>
    <path d="M12.7891 13.9133H12.0448C11.948 13.9133 11.8698 13.9916 11.8698 14.0883V15.2463C11.8698 15.3431 11.948 15.4213 12.0448 15.4213H12.7891C12.8858 15.4213 12.9641 15.3431 12.9641 15.2463V14.0883C12.9641 13.9917 12.8858 13.9133 12.7891 13.9133ZM12.6141 15.0715H12.2198V14.2635H12.6141V15.0715Z" fill="#12020A"/>
    <path d="M21.825 24.7677H20.9127C20.9127 24.7676 20.9127 24.7676 20.9127 24.7674L20.909 23.6222C21.5238 23.5406 21.9993 23.0449 21.9993 22.4458C21.9993 22.2073 21.924 21.977 21.7821 21.7807C21.7795 21.777 21.777 21.7735 21.7742 21.7698C21.8147 21.661 21.8352 21.5476 21.8352 21.4316C21.8352 21.2207 21.7662 21.0152 21.6395 20.8428C21.6698 20.7546 21.6852 20.6631 21.6852 20.5695C21.6852 20.5541 21.6847 20.5387 21.6839 20.5238C21.6584 20.0461 21.2398 19.6718 20.7307 19.6718C20.2043 19.6718 19.7763 20.0745 19.7763 20.5695C19.7763 20.6632 19.7915 20.7547 19.8218 20.8429C19.6949 21.0152 19.6261 21.2205 19.6261 21.4316C19.6261 21.5474 19.6466 21.6608 19.6872 21.7699C19.5414 21.9674 19.4622 22.2037 19.4622 22.4457C19.4622 23.0467 19.9404 23.5435 20.5587 23.6227L20.5624 24.7676H19.4879V24.0303C19.4879 23.9335 19.4097 23.8553 19.3129 23.8553H19.1377V18.5237H19.507C19.6037 18.5237 19.682 18.4455 19.682 18.3487C19.682 18.252 19.6037 18.1737 19.507 18.1737H19.1377V13.2259H19.3747C19.4714 13.2259 19.5497 13.1477 19.5497 13.0509V12.174C19.5497 12.0773 19.4714 11.999 19.3747 11.999H10.6684C10.5716 11.999 10.4934 12.0773 10.4934 12.174V13.0509C10.4934 13.1477 10.5716 13.2259 10.6684 13.2259H10.9053V18.1737H10.604C10.5072 18.1737 10.429 18.252 10.429 18.3487C10.429 18.4455 10.5072 18.5237 10.604 18.5237H10.9053V23.8553H10.7302C10.6334 23.8553 10.5552 23.9335 10.5552 24.0303V24.7677H9.44987C9.44987 24.7676 9.44987 24.7676 9.44987 24.7674L9.44618 23.6222C10.0617 23.5406 10.5371 23.045 10.5371 22.446C10.5371 22.2075 10.4619 21.9772 10.3199 21.7809C10.3173 21.7772 10.3149 21.7737 10.3121 21.77C10.3525 21.6612 10.373 21.5478 10.373 21.4318C10.373 21.2209 10.3041 21.0155 10.1773 20.8431C10.2076 20.7548 10.223 20.6633 10.223 20.5697C10.223 20.5543 10.2225 20.5389 10.2218 20.5241C10.1962 20.0463 9.77762 19.672 9.26854 19.672C8.74214 19.672 8.31408 20.0747 8.31408 20.5698C8.31408 20.6634 8.32929 20.7549 8.35957 20.8431C8.2327 21.0155 8.16393 21.2207 8.16393 21.4318C8.16393 21.5476 8.1844 21.661 8.225 21.7701C8.07926 21.9676 8 22.2038 8 22.4458C8 23.0468 8.47828 23.5436 9.09655 23.6229L9.10021 24.7677H8.175C8.07824 24.7677 8 24.846 8 24.9427V25.824C8 25.9208 8.07824 25.999 8.175 25.999H21.825C21.9218 25.999 22 25.9208 22 25.824V24.9427C22 24.8459 21.9218 24.7677 21.825 24.7677ZM20.5538 22.198L20.5573 23.2692C20.1334 23.1949 19.8118 22.8545 19.8118 22.446C19.8118 22.2529 19.8856 22.064 20.0199 21.9149C20.068 21.861 20.0785 21.7832 20.0456 21.7187C19.9992 21.6272 19.9758 21.5308 19.9758 21.4319C19.9758 21.2714 20.0384 21.115 20.1522 20.9914C20.2015 20.9377 20.2125 20.8595 20.18 20.7944C20.1441 20.723 20.1259 20.6474 20.1259 20.5699C20.1259 20.2678 20.3972 20.0221 20.7304 20.0221C21.0535 20.0221 21.3186 20.2508 21.3341 20.5434L21.3348 20.5699C21.3348 20.6472 21.3166 20.7228 21.2806 20.7944C21.248 20.8595 21.2591 20.9377 21.3084 20.9914C21.422 21.115 21.4848 21.2714 21.4848 21.4319C21.4848 21.5308 21.4614 21.6272 21.4152 21.7187C21.3822 21.7831 21.3928 21.861 21.4411 21.9149C21.461 21.9373 21.4801 21.9606 21.4978 21.9854C21.5966 22.1223 21.649 22.2815 21.649 22.446C21.6493 22.8534 21.3294 23.1933 20.9073 23.2689L20.9038 22.197C20.9035 22.1004 20.8252 22.0225 20.7288 22.0225C20.7287 22.0225 20.7285 22.0225 20.7283 22.0225C20.6315 22.0228 20.5534 22.1014 20.5538 22.198ZM10.8431 12.8759V12.349H19.1993V12.8759H10.8431ZM16.7692 21.1925C16.2274 21.1925 15.7868 21.6333 15.7868 22.1751V23.8553H11.2548V18.5237H18.7873V23.8553H17.7519V22.1751C17.7519 21.6331 17.3111 21.1925 16.7692 21.1925ZM17.4019 22.1751V23.8553H16.1368V22.1751C16.1368 21.8263 16.4205 21.5425 16.7693 21.5425C17.118 21.5425 17.4019 21.8263 17.4019 22.1751ZM11.2548 18.1737V13.2259H18.7873V18.1737H11.2548ZM10.9048 24.2053H19.1377V24.7677H10.9048V24.2053ZM9.09095 22.198L9.09443 23.2692C8.67095 23.1949 8.34928 22.8545 8.34928 22.4458C8.34928 22.2527 8.42314 22.0638 8.55737 21.9147C8.60549 21.8608 8.61599 21.783 8.58311 21.7185C8.53672 21.627 8.51328 21.5306 8.51328 21.4317C8.51328 21.2712 8.57593 21.1148 8.68968 20.9912C8.73903 20.9375 8.75004 20.8593 8.7175 20.7942C8.68161 20.7228 8.66343 20.6472 8.66343 20.5696C8.66343 20.2676 8.93468 20.0219 9.2679 20.0219C9.59093 20.0219 9.85606 20.2506 9.87165 20.5432L9.87233 20.5696C9.87233 20.647 9.85415 20.7226 9.81809 20.7942C9.78555 20.8593 9.79655 20.9375 9.84591 20.9912C9.95949 21.1148 10.0223 21.2712 10.0223 21.4317C10.0223 21.5306 9.99886 21.627 9.95265 21.7185C9.91974 21.7829 9.93026 21.8608 9.97856 21.9147C9.99852 21.9371 10.0176 21.9604 10.0353 21.9852C10.1341 22.1221 10.1865 22.2813 10.1865 22.4458C10.1865 22.8534 9.86659 23.1932 9.44447 23.2689L9.44098 22.197C9.44064 22.1004 9.3624 22.0225 9.26598 22.0225C9.26581 22.0225 9.26564 22.0225 9.26547 22.0225C9.16864 22.0228 9.09061 22.1014 9.09095 22.198ZM21.6493 25.649H8.34932V25.1177H21.6493V25.649Z" fill="#12020A"/>
  </g>
</svg>
