<svg width="100%" height="100%" viewBox="0 0 75 75" fill="none" xmlns="http://www.w3.org/2000/svg">
	<rect x="0.5" y="0.5" width="74" height="74" rx="37" fill="#F9F5F7" />
	<rect x="0.5" y="0.5" width="74" height="74" rx="37" stroke="#12020A" />
	<path
		fill-rule="evenodd"
		clip-rule="evenodd"
		d="M17.9688 30.4687H16.4063C16.0587 30.4687 15.7524 30.2383 15.6555 29.9039C15.5594 29.5695 15.6954 29.2117 15.9899 29.0266L37.0837 15.7453C37.3383 15.5852 37.6618 15.5852 37.9165 15.7453L59.0102 29.0266C59.3048 29.2117 59.4407 29.5695 59.3446 29.9039C59.2477 30.2383 58.9415 30.4687 58.5938 30.4687H57.0313V58.5938C57.0313 59.025 56.6813 59.375 56.2501 59.375H18.7501C18.3188 59.375 17.9688 59.025 17.9688 58.5938V30.4687ZM55.8868 28.9062L37.5001 17.3297L19.1133 28.9062H55.8868ZM55.4688 34.375V30.4687H19.5313V34.375H49.2188C49.6501 34.375 50.0001 34.725 50.0001 35.1562C50.0001 35.5875 49.6501 35.9375 49.2188 35.9375H19.5313V57.8125H21.8751V39.8437C21.8751 39.4125 22.2251 39.0625 22.6563 39.0625H33.5938C34.0251 39.0625 34.3751 39.4125 34.3751 39.8437V57.8125H55.4688V35.9375H52.3438C51.9126 35.9375 51.5626 35.5875 51.5626 35.1562C51.5626 34.725 51.9126 34.375 52.3438 34.375H55.4688ZM23.4376 57.8125H32.8126V44.5313H23.4376V57.8125ZM32.8126 42.9688V40.625H23.4376V42.9688H32.8126ZM53.1251 53.125H37.5001C37.0688 53.125 36.7188 52.775 36.7188 52.3438V42.9688C36.7188 42.5375 37.0688 42.1875 37.5001 42.1875H53.1251C53.5563 42.1875 53.9063 42.5375 53.9063 42.9688V52.3438C53.9063 52.775 53.5563 53.125 53.1251 53.125ZM44.5391 43.75H38.2813V46.875H44.5391V43.75ZM38.2813 48.4375V51.5625H44.5391V48.4375H38.2813ZM52.3438 46.875V43.75H46.1016V46.875H52.3438ZM46.1016 51.5625H52.3438V48.4375H46.1016V51.5625ZM30.4688 50C31.3313 50 32.0313 50.7 32.0313 51.5625C32.0313 52.425 31.3313 53.125 30.4688 53.125C29.6063 53.125 28.9063 52.425 28.9063 51.5625C28.9063 50.7 29.6063 50 30.4688 50ZM37.5001 20.3125C39.2251 20.3125 40.6251 21.7125 40.6251 23.4375C40.6251 25.1625 39.2251 26.5625 37.5001 26.5625C35.7751 26.5625 34.3751 25.1625 34.3751 23.4375C34.3751 21.7125 35.7751 20.3125 37.5001 20.3125ZM37.5001 21.875C36.6376 21.875 35.9376 22.575 35.9376 23.4375C35.9376 24.3 36.6376 25 37.5001 25C38.3626 25 39.0626 24.3 39.0626 23.4375C39.0626 22.575 38.3626 21.875 37.5001 21.875Z"
		fill="#12020A"
	/>
</svg>
