<svg width="100%" height="100%" viewBox="0 0 30 30" fill="none" xmlns="http://www.w3.org/2000/svg">
<rect x="0.5" y="0.5" width="29" height="29" rx="14.5" fill="#F9F5F7"/>
<rect x="0.5" y="0.5" width="29" height="29" rx="14.5" stroke="#12020A"/>
<path d="M6.21416 11.9754L6.21413 11.9753C6.16957 11.8202 6.23258 11.6542 6.36929 11.5682L6.21416 11.9754ZM6.21416 11.9754C6.25909 12.1305 6.40112 12.2374 6.5625 12.2374H7.1375M6.21416 11.9754L7.1375 12.2374M7.1375 12.2374V23.4374C7.1375 23.6375 7.29988 23.7999 7.5 23.7999H22.5C22.7001 23.7999 22.8625 23.6375 22.8625 23.4374V12.2374H23.4375C23.5989 12.2374 23.7409 12.1305 23.7858 11.9754L23.7859 11.9753C23.8304 11.8202 23.7674 11.6542 23.6307 11.5682L7.1375 12.2374ZM14.8068 6.25574L6.36932 11.5682H23.6307L15.1932 6.25574L15.1932 6.25572C15.075 6.18143 14.925 6.18143 14.8068 6.25572L14.8068 6.25574ZM7.81856 11.5124L15 6.99088L22.1814 11.5124H7.81856ZM7.8625 12.2374H22.1375V13.6999H20.9375C20.7374 13.6999 20.575 13.8623 20.575 14.0624C20.575 14.2625 20.7374 14.4249 20.9375 14.4249H22.1375V23.0749H13.8V15.9374C13.8 15.7373 13.6376 15.5749 13.4375 15.5749H9.0625C8.86238 15.5749 8.7 15.7373 8.7 15.9374V23.0749H7.8625V14.4249H19.6875C19.8876 14.4249 20.05 14.2625 20.05 14.0624C20.05 13.8623 19.8876 13.6999 19.6875 13.6999H7.8625V12.2374ZM13.075 17.8624V23.0749H9.425V17.8624H13.075ZM9.425 16.2999H13.075V17.1374H9.425V16.2999ZM15 21.2999H21.25C21.4501 21.2999 21.6125 21.1375 21.6125 20.9374V17.1874C21.6125 16.9873 21.4501 16.8249 21.25 16.8249H15C14.7999 16.8249 14.6375 16.9873 14.6375 17.1874V20.9374C14.6375 21.1375 14.7999 21.2999 15 21.2999ZM15.3625 18.6999V17.5499H17.7656V18.6999H15.3625ZM17.7656 20.5749H15.3625V19.4249H17.7656V20.5749ZM18.4906 17.5499H20.8875V18.6999H18.4906V17.5499ZM20.8875 19.4249V20.5749H18.4906V19.4249H20.8875ZM12.8625 20.6249C12.8625 20.2523 12.5601 19.9499 12.1875 19.9499C11.8149 19.9499 11.5125 20.2523 11.5125 20.6249C11.5125 20.9975 11.8149 21.2999 12.1875 21.2999C12.5601 21.2999 12.8625 20.9975 12.8625 20.6249ZM16.3 9.37492C16.3 8.65731 15.7176 8.07492 15 8.07492C14.2824 8.07492 13.7 8.65731 13.7 9.37492C13.7 10.0925 14.2824 10.6749 15 10.6749C15.7176 10.6749 16.3 10.0925 16.3 9.37492ZM14.425 9.37492C14.425 9.05754 14.6826 8.79992 15 8.79992C15.3174 8.79992 15.575 9.05754 15.575 9.37492C15.575 9.69231 15.3174 9.94992 15 9.94992C14.6826 9.94992 14.425 9.69231 14.425 9.37492Z" fill="#12020A" stroke="#12020A" stroke-width="0.1"/>
</svg>
