<svg width="100%" height="100%" viewBox="0 0 75 75" fill="none" xmlns="http://www.w3.org/2000/svg">
	<rect x="0.5" y="0.5" width="74" height="74" rx="37" fill="#F9F5F7" />
	<rect x="0.5" y="0.5" width="74" height="74" rx="37" stroke="#12020A" />
	<path
		d="M26.6852 21.1944C24.9222 21.1944 23.8204 20.987 23.1981 20.3519C22.5241 19.6648 22.3296 18.6019 22.3296 15.9056C22.3296 11.6926 23.0556 10.7204 26.7111 10.7204C29.8352 10.7204 30.8852 11.4333 30.8852 13.8315V13.8704H29.1093V13.8315C29.1093 12.613 28.5778 12.3148 26.7111 12.3148C24.3907 12.3148 24.1056 12.7037 24.1056 15.5426V15.7111H24.1315C24.4685 15.0111 25.337 14.7519 27.1519 14.7519C30.1333 14.7519 31.0148 15.5296 31.0148 17.9019C31.0148 20.4944 30.0296 21.1944 26.6852 21.1944ZM24.1833 17.9148C24.1833 18.4463 24.2481 18.9389 24.5463 19.2111C24.8574 19.5093 25.4278 19.6 26.6722 19.6C28.837 19.6 29.213 19.3148 29.213 17.9278C29.213 16.5796 28.8889 16.3204 26.6722 16.3204C24.5593 16.3204 24.1833 16.5796 24.1833 17.9148ZM37.0018 21.1944C33.3333 21.1944 32.4907 20.1185 32.4907 15.9574C32.4907 11.7963 33.3333 10.7204 37.0018 10.7204C40.6573 10.7204 41.4999 11.7963 41.4999 15.9574C41.4999 20.1185 40.6573 21.1944 37.0018 21.1944ZM34.3314 15.9574C34.3314 19.1463 34.6166 19.5741 37.0018 19.5741C39.387 19.5741 39.6592 19.1463 39.6592 15.9574C39.6592 12.7685 39.387 12.3407 37.0018 12.3407C34.6166 12.3407 34.3314 12.7685 34.3314 15.9574ZM47.285 21.1944C44.135 21.1944 43.072 20.4815 43.072 18.0833V18.0444H44.8479V18.0833C44.8479 19.2889 45.3924 19.6 47.285 19.6C49.6442 19.6 49.9294 19.2111 49.9294 16.3852V16.2037H49.9035C49.5664 16.8907 48.7238 17.163 46.8831 17.163C43.9016 17.163 43.0201 16.3852 43.0201 14.013C43.0201 11.4204 44.0053 10.7204 47.3498 10.7204C49.1257 10.7204 50.2146 10.9278 50.8498 11.563C51.5109 12.25 51.7053 13.313 51.7053 16.0093C51.7053 20.2222 50.9794 21.1944 47.285 21.1944ZM44.822 13.987C44.822 15.3352 45.1461 15.5944 47.3627 15.5944C49.4757 15.5944 49.8516 15.3352 49.8516 14C49.8516 13.4426 49.7738 12.9759 49.4887 12.7037C49.1516 12.3926 48.5553 12.3148 47.3627 12.3148C45.1979 12.3148 44.822 12.6 44.822 13.987Z"
		fill="#EB6447"
	/>
	<g>
		<path
			d="M46.4272 43.8526H44.1944C43.9041 43.8526 43.6694 44.0873 43.6694 44.3776V47.8515C43.6694 48.1418 43.9041 48.3765 44.1944 48.3765H46.4272C46.7175 48.3765 46.9522 48.1418 46.9522 47.8515V44.3776C46.9521 44.0873 46.7175 43.8526 46.4272 43.8526ZM45.9021 47.3265H44.7193V44.9026H45.9021V47.3265Z"
			fill="#12020A"
		/>
		<path
			d="M46.4272 33.9769H44.1944C43.9041 33.9769 43.6694 34.2116 43.6694 34.5019V37.9758C43.6694 38.2661 43.9041 38.5008 44.1944 38.5008H46.4272C46.7175 38.5008 46.9522 38.2661 46.9522 37.9758V34.5019C46.9521 34.212 46.7175 33.9769 46.4272 33.9769ZM45.9022 37.4513H44.7194V35.0274H45.9022V37.4513Z"
			fill="#12020A"
		/>
		<path
			d="M41.2407 43.8526H39.0079C38.7176 43.8526 38.4829 44.0873 38.4829 44.3776V47.8515C38.4829 48.1418 38.7176 48.3765 39.0079 48.3765H41.2407C41.531 48.3765 41.7657 48.1418 41.7657 47.8515V44.3776C41.7657 44.0873 41.531 43.8526 41.2407 43.8526ZM40.7157 47.3265H39.5329V44.9026H40.7157V47.3265Z"
			fill="#12020A"
		/>
		<path
			d="M41.2407 33.9769H39.0079C38.7176 33.9769 38.4829 34.2116 38.4829 34.5019V37.9758C38.4829 38.2661 38.7176 38.5008 39.0079 38.5008H41.2407C41.531 38.5008 41.7657 38.2661 41.7657 37.9758V34.5019C41.7657 34.212 41.531 33.9769 41.2407 33.9769ZM40.7157 37.4513H39.5329V35.0274H40.7157V37.4513Z"
			fill="#12020A"
		/>
		<path
			d="M36.0537 43.8526H33.8209C33.5306 43.8526 33.2959 44.0873 33.2959 44.3776V47.8515C33.2959 48.1418 33.5306 48.3765 33.8209 48.3765H36.0537C36.344 48.3765 36.5787 48.1418 36.5787 47.8515V44.3776C36.5787 44.0873 36.3441 43.8526 36.0537 43.8526ZM35.5287 47.3265H34.3459V44.9026H35.5287V47.3265Z"
			fill="#12020A"
		/>
		<path
			d="M36.0537 33.9769H33.8209C33.5306 33.9769 33.2959 34.2116 33.2959 34.5019V37.9758C33.2959 38.2661 33.5306 38.5008 33.8209 38.5008H36.0537C36.344 38.5008 36.5787 38.2661 36.5787 37.9758V34.5019C36.5787 34.212 36.3441 33.9769 36.0537 33.9769ZM35.5287 37.4513H34.3459V35.0274H35.5287V37.4513Z"
			fill="#12020A"
		/>
		<path
			d="M30.8672 43.8526H28.6344C28.3441 43.8526 28.1094 44.0873 28.1094 44.3776V47.8515C28.1094 48.1418 28.3441 48.3765 28.6344 48.3765H30.8672C31.1575 48.3765 31.3922 48.1418 31.3922 47.8515V44.3776C31.3922 44.0873 31.1575 43.8526 30.8672 43.8526ZM30.3422 47.3265H29.1594V44.9026H30.3422V47.3265Z"
			fill="#12020A"
		/>
		<path
			d="M36.0537 50.1053H33.8209C33.5306 50.1053 33.2959 50.3401 33.2959 50.6303V54.1043C33.2959 54.3946 33.5306 54.6293 33.8209 54.6293H36.0537C36.344 54.6293 36.5787 54.3946 36.5787 54.1043V50.6303C36.5787 50.3401 36.3441 50.1053 36.0537 50.1053ZM35.5287 53.5793H34.3459V51.1553H35.5287V53.5793Z"
			fill="#12020A"
		/>
		<path
			d="M30.8672 50.1053H28.6344C28.3441 50.1053 28.1094 50.3401 28.1094 50.6303V54.1043C28.1094 54.3946 28.3441 54.6293 28.6344 54.6293H30.8672C31.1575 54.6293 31.3922 54.3946 31.3922 54.1043V50.6303C31.3922 50.3401 31.1575 50.1053 30.8672 50.1053ZM30.3422 53.5793H29.1594V51.1553H30.3422V53.5793Z"
			fill="#12020A"
		/>
		<path
			d="M30.8672 33.9769H28.6344C28.3441 33.9769 28.1094 34.2116 28.1094 34.5019V37.9758C28.1094 38.2661 28.3441 38.5008 28.6344 38.5008H30.8672C31.1575 38.5008 31.3922 38.2661 31.3922 37.9758V34.5019C31.3922 34.212 31.1575 33.9769 30.8672 33.9769ZM30.3422 37.4513H29.1594V35.0274H30.3422V37.4513Z"
			fill="#12020A"
		/>
		<path
			d="M46.4272 27.743H44.1944C43.9041 27.743 43.6694 27.9777 43.6694 28.268V31.7419C43.6694 32.0322 43.9041 32.2669 44.1944 32.2669H46.4272C46.7175 32.2669 46.9522 32.0322 46.9522 31.7419V28.268C46.9521 27.9781 46.7175 27.743 46.4272 27.743ZM45.9022 31.2174H44.7194V28.7935H45.9022V31.2174Z"
			fill="#12020A"
		/>
		<path
			d="M41.2407 27.743H39.0079C38.7176 27.743 38.4829 27.9777 38.4829 28.268V31.7419C38.4829 32.0322 38.7176 32.2669 39.0079 32.2669H41.2407C41.531 32.2669 41.7657 32.0322 41.7657 31.7419V28.268C41.7657 27.9781 41.531 27.743 41.2407 27.743ZM40.7157 31.2174H39.5329V28.7935H40.7157V31.2174Z"
			fill="#12020A"
		/>
		<path
			d="M36.0537 27.743H33.8209C33.5306 27.743 33.2959 27.9777 33.2959 28.268V31.7419C33.2959 32.0322 33.5306 32.2669 33.8209 32.2669H36.0537C36.344 32.2669 36.5787 32.0322 36.5787 31.7419V28.268C36.5787 27.9781 36.3441 27.743 36.0537 27.743ZM35.5287 31.2174H34.3459V28.7935H35.5287V31.2174Z"
			fill="#12020A"
		/>
		<path
			d="M30.8672 27.743H28.6344C28.3441 27.743 28.1094 27.9777 28.1094 28.268V31.7419C28.1094 32.0322 28.3441 32.2669 28.6344 32.2669H30.8672C31.1575 32.2669 31.3922 32.0322 31.3922 31.7419V28.268C31.3922 27.9781 31.1575 27.743 30.8672 27.743ZM30.3422 31.2174H29.1594V28.7935H30.3422V31.2174Z"
			fill="#12020A"
		/>
		<path
			d="M57.975 60.3061H55.2381C55.2381 60.3056 55.2381 60.3056 55.2381 60.3051L55.2271 56.8695C57.0714 56.6249 58.4978 55.1376 58.4978 53.3405C58.4978 52.6248 58.2721 51.934 57.8463 51.3449C57.8384 51.3339 57.8311 51.3234 57.8227 51.3124C57.944 50.9858 58.0055 50.6457 58.0055 50.2976C58.0055 49.6649 57.7986 49.0486 57.4185 48.5315C57.5094 48.2668 57.5555 47.9923 57.5555 47.7115C57.5555 47.6652 57.554 47.6191 57.5518 47.5745C57.4751 46.1412 56.2193 45.0183 54.6921 45.0183C53.1129 45.0183 51.8288 46.2263 51.8288 47.7116C51.8288 47.9924 51.8744 48.267 51.9653 48.5316C51.5847 49.0487 51.3784 49.6645 51.3784 50.2977C51.3784 50.6452 51.4398 50.9854 51.5616 51.3125C51.1243 51.9052 50.8865 52.614 50.8865 53.34C50.8865 55.1429 52.3213 56.6334 54.1761 56.8712L54.1872 60.3057H50.9637V58.0938C50.9637 57.8035 50.729 57.5688 50.4387 57.5688H49.9132V41.5741H51.0209C51.3112 41.5741 51.5459 41.3394 51.5459 41.0491C51.5459 40.7588 51.3112 40.5241 51.0209 40.5241H49.9132V25.6807H50.624C50.9143 25.6807 51.149 25.446 51.149 25.1557V22.525C51.149 22.2347 50.9143 22 50.624 22H24.5052C24.2149 22 23.9802 22.2347 23.9802 22.525V25.1557C23.9802 25.446 24.2149 25.6807 24.5052 25.6807H25.216V40.5241H24.3119C24.0217 40.5241 23.7869 40.7588 23.7869 41.0491C23.7869 41.3394 24.0217 41.5741 24.3119 41.5741H25.216V57.5688H24.6905C24.4002 57.5688 24.1655 57.8035 24.1655 58.0938V60.3061H20.8496C20.8496 60.3056 20.8496 60.3056 20.8496 60.3051L20.8385 56.8695C22.685 56.6249 24.1114 55.1381 24.1114 53.3411C24.1114 52.6254 23.8856 51.9346 23.4598 51.3456C23.4519 51.3345 23.4447 51.324 23.4363 51.313C23.5576 50.9865 23.619 50.6463 23.619 50.2982C23.619 49.6656 23.4122 49.0493 23.032 48.5321C23.1229 48.2674 23.169 47.9929 23.169 47.7121C23.169 47.6658 23.1675 47.6197 23.1653 47.5751C23.0887 46.1418 21.8329 45.0189 20.3056 45.0189C18.7264 45.0189 17.4422 46.2269 17.4422 47.7122C17.4422 47.993 17.4879 48.2676 17.5787 48.5322C17.1981 49.0493 16.9918 49.6651 16.9918 50.2983C16.9918 50.6458 17.0532 50.986 17.175 51.3131C16.7378 51.9056 16.5 52.6144 16.5 53.3405C16.5 55.1433 17.9348 56.6338 19.7897 56.8716L19.8006 60.3061H17.025C16.7347 60.3061 16.5 60.5408 16.5 60.8311V63.475C16.5 63.7653 16.7347 64 17.025 64H57.975C58.2653 64 58.5 63.7653 58.5 63.475V60.8311C58.5 60.5407 58.2653 60.3061 57.975 60.3061ZM54.1614 52.597L54.1718 55.8106C52.9002 55.5875 51.9353 54.5664 51.9353 53.3411C51.9353 52.7615 52.1569 52.195 52.5596 51.7477C52.704 51.586 52.7355 51.3524 52.6368 51.1591C52.4977 50.8845 52.4273 50.5953 52.4273 50.2986C52.4273 49.8172 52.6153 49.3479 52.9565 48.9772C53.1046 48.816 53.1376 48.5814 53.04 48.3861C52.9323 48.1719 52.8778 47.945 52.8778 47.7125C52.8778 46.8064 53.6915 46.0692 54.6912 46.0692C55.6604 46.0692 56.4557 46.7554 56.5024 47.6332L56.5045 47.7125C56.5045 47.9445 56.4499 48.1714 56.3418 48.3861C56.2441 48.5814 56.2772 48.816 56.4252 48.9772C56.766 49.3479 56.9544 49.8172 56.9544 50.2986C56.9544 50.5953 56.8841 50.8845 56.7455 51.1591C56.6467 51.3523 56.6783 51.586 56.8232 51.7477C56.8831 51.8149 56.9403 51.8847 56.9933 51.9592C57.2899 52.3698 57.4469 52.8475 57.4469 53.3411C57.4479 54.5632 56.4883 55.5828 55.2219 55.8096L55.2115 52.594C55.2104 52.3042 54.9757 52.0705 54.6865 52.0705C54.686 52.0705 54.6854 52.0705 54.6849 52.0705C54.3945 52.0714 54.1603 52.3072 54.1614 52.597ZM25.0292 24.6307V23.05H50.0979V24.6307H25.0292ZM42.8077 49.5803C41.1823 49.5803 39.8603 50.9028 39.8603 52.5282V57.5688H26.2645V41.5741H48.862V57.5688H45.7556V52.5282C45.7556 50.9023 44.4332 49.5803 42.8077 49.5803ZM44.7056 52.5282V57.5688H40.9104V52.5282C40.9104 51.4819 41.7614 50.6303 42.8078 50.6303C43.854 50.6303 44.7056 51.4819 44.7056 52.5282ZM26.2645 40.5241V25.6807H48.862V40.5241H26.2645ZM25.2145 58.6187H49.9131V60.3061H25.2145V58.6187ZM19.7728 52.597L19.7833 55.8106C18.5128 55.5875 17.5478 54.5664 17.5478 53.3405C17.5478 52.7609 17.7694 52.1944 18.1721 51.7471C18.3165 51.5854 18.348 51.3518 18.2493 51.1585C18.1102 50.8839 18.0398 50.5947 18.0398 50.298C18.0398 49.8166 18.2278 49.3473 18.569 48.9766C18.7171 48.8154 18.7501 48.5807 18.6525 48.3855C18.5448 48.1713 18.4903 47.9444 18.4903 47.7119C18.4903 46.8057 19.304 46.0686 20.3037 46.0686C21.2728 46.0686 22.0682 46.7548 22.1149 47.6326L22.117 47.7119C22.117 47.9439 22.0624 48.1707 21.9543 48.3855C21.8566 48.5808 21.8897 48.8154 22.0377 48.9766C22.3785 49.3473 22.5669 49.8166 22.5669 50.298C22.5669 50.5947 22.4966 50.8839 22.358 51.1585C22.2592 51.3517 22.2908 51.5854 22.4357 51.7471C22.4956 51.8143 22.5528 51.8841 22.6058 51.9586C22.9024 52.3692 23.0594 52.8469 23.0594 53.3405C23.0594 54.5631 22.0998 55.5827 20.8334 55.8095L20.8229 52.5939C20.8219 52.3041 20.5872 52.0704 20.2979 52.0704C20.2974 52.0704 20.2969 52.0704 20.2964 52.0704C20.0059 52.0714 19.7718 52.3072 19.7728 52.597ZM57.4479 62.95H17.5479V61.3561H57.4479V62.95Z"
			fill="#12020A"
		/>
	</g>
</svg>
