<svg width="100%" height="100%" viewBox="0 0 30 30" fill="none" xmlns="http://www.w3.org/2000/svg">
  <rect x="0.5" y="0.5" width="29" height="29" rx="14.5" fill="#F9F5F7"/>
  <rect x="0.5" y="0.5" width="29" height="29" rx="14.5" stroke="#12020A"/>
  <path d="M11.8963 11.1111C10.0593 11.1111 9.45926 10.7333 9.45926 9.54815V9.36296H10.4741V9.45926C10.4741 10.0519 10.7556 10.2 11.8963 10.2C13.163 10.2 13.3185 10.0222 13.3185 9.16296C13.3185 8.28148 13.1556 8.1037 11.8889 8.1037C10.963 8.1037 10.6444 8.21481 10.5333 8.6H9.55556V5.23704H14.1407V6.14074H10.5333V7.68148H10.5481C10.7556 7.33333 11.2444 7.21481 12.1852 7.21481C13.7926 7.21481 14.3481 7.62963 14.3481 9.13333C14.3481 10.6815 13.8741 11.1111 11.8963 11.1111ZM15.2973 11V5.23704H18.1714C19.6307 5.23704 20.1714 5.62222 20.1714 6.71852C20.1714 7.47407 19.9122 7.82222 19.3047 7.98519V8.01481C20.0233 8.17037 20.3196 8.55556 20.3196 9.40741C20.3196 10.5852 19.7566 11 18.1936 11H15.2973ZM16.3344 10.1111H18.1936C19.0084 10.1111 19.2825 9.94815 19.2825 9.28889C19.2825 8.65185 19.0159 8.46667 18.2455 8.46667H16.3344V10.1111ZM16.3344 7.59259H18.2307C18.9047 7.59259 19.1566 7.43704 19.1566 6.85185C19.1566 6.26667 18.9122 6.12593 18.1714 6.12593H16.3344V7.59259Z" fill="#83C8C3"/>
  <g>
    <path d="M17.9757 19.2842H17.2315C17.1347 19.2842 17.0565 19.3624 17.0565 19.4592V20.6172C17.0565 20.7139 17.1347 20.7922 17.2315 20.7922H17.9757C18.0725 20.7922 18.1507 20.7139 18.1507 20.6172V19.4592C18.1507 19.3624 18.0725 19.2842 17.9757 19.2842ZM17.8007 20.4422H17.4064V19.6342H17.8007V20.4422Z" fill="#12020A"/>
    <path d="M17.9757 15.9922H17.2315C17.1347 15.9922 17.0565 16.0704 17.0565 16.1672V17.3252C17.0565 17.4219 17.1347 17.5002 17.2315 17.5002H17.9757C18.0725 17.5002 18.1507 17.4219 18.1507 17.3252V16.1672C18.1507 16.0706 18.0725 15.9922 17.9757 15.9922ZM17.8007 17.1503H17.4065V16.3424H17.8007V17.1503Z" fill="#12020A"/>
    <path d="M16.2469 19.2842H15.5026C15.4058 19.2842 15.3276 19.3624 15.3276 19.4592V20.6172C15.3276 20.7139 15.4058 20.7922 15.5026 20.7922H16.2469C16.3436 20.7922 16.4219 20.7139 16.4219 20.6172V19.4592C16.4219 19.3624 16.3436 19.2842 16.2469 19.2842ZM16.0719 20.4422H15.6776V19.6342H16.0719V20.4422Z" fill="#12020A"/>
    <path d="M16.2469 15.9922H15.5026C15.4058 15.9922 15.3276 16.0704 15.3276 16.1672V17.3252C15.3276 17.4219 15.4058 17.5002 15.5026 17.5002H16.2469C16.3436 17.5002 16.4219 17.4219 16.4219 17.3252V16.1672C16.4219 16.0706 16.3436 15.9922 16.2469 15.9922ZM16.0719 17.1503H15.6776V16.3424H16.0719V17.1503Z" fill="#12020A"/>
    <path d="M14.5179 19.2842H13.7736C13.6768 19.2842 13.5986 19.3624 13.5986 19.4592V20.6172C13.5986 20.7139 13.6768 20.7922 13.7736 20.7922H14.5179C14.6146 20.7922 14.6929 20.7139 14.6929 20.6172V19.4592C14.6929 19.3624 14.6147 19.2842 14.5179 19.2842ZM14.3429 20.4422H13.9486V19.6342H14.3429V20.4422Z" fill="#12020A"/>
    <path d="M14.5179 15.9922H13.7736C13.6768 15.9922 13.5986 16.0704 13.5986 16.1672V17.3252C13.5986 17.4219 13.6768 17.5002 13.7736 17.5002H14.5179C14.6146 17.5002 14.6929 17.4219 14.6929 17.3252V16.1672C14.6929 16.0706 14.6147 15.9922 14.5179 15.9922ZM14.3429 17.1503H13.9486V16.3424H14.3429V17.1503Z" fill="#12020A"/>
    <path d="M12.789 19.2842H12.0448C11.948 19.2842 11.8698 19.3624 11.8698 19.4592V20.6172C11.8698 20.7139 11.948 20.7922 12.0448 20.7922H12.789C12.8858 20.7922 12.964 20.7139 12.964 20.6172V19.4592C12.964 19.3624 12.8858 19.2842 12.789 19.2842ZM12.614 20.4422H12.2198V19.6342H12.614V20.4422Z" fill="#12020A"/>
    <path d="M14.5179 21.3684H13.7736C13.6768 21.3684 13.5986 21.4466 13.5986 21.5434V22.7014C13.5986 22.7981 13.6768 22.8764 13.7736 22.8764H14.5179C14.6146 22.8764 14.6929 22.7981 14.6929 22.7014V21.5434C14.6929 21.4466 14.6147 21.3684 14.5179 21.3684ZM14.3429 22.5264H13.9486V21.7184H14.3429V22.5264Z" fill="#12020A"/>
    <path d="M12.789 21.3684H12.0448C11.948 21.3684 11.8698 21.4466 11.8698 21.5434V22.7014C11.8698 22.7981 11.948 22.8764 12.0448 22.8764H12.789C12.8858 22.8764 12.964 22.7981 12.964 22.7014V21.5434C12.964 21.4466 12.8858 21.3684 12.789 21.3684ZM12.614 22.5264H12.2198V21.7184H12.614V22.5264Z" fill="#12020A"/>
    <path d="M12.789 15.9922H12.0448C11.948 15.9922 11.8698 16.0704 11.8698 16.1672V17.3252C11.8698 17.4219 11.948 17.5002 12.0448 17.5002H12.789C12.8858 17.5002 12.964 17.4219 12.964 17.3252V16.1672C12.964 16.0706 12.8858 15.9922 12.789 15.9922ZM12.614 17.1503H12.2198V16.3424H12.614V17.1503Z" fill="#12020A"/>
    <path d="M17.9757 13.9143H17.2315C17.1347 13.9143 17.0565 13.9925 17.0565 14.0893V15.2473C17.0565 15.344 17.1347 15.4223 17.2315 15.4223H17.9757C18.0725 15.4223 18.1507 15.344 18.1507 15.2473V14.0893C18.1507 13.9927 18.0725 13.9143 17.9757 13.9143ZM17.8007 15.0725H17.4065V14.2645H17.8007V15.0725Z" fill="#12020A"/>
    <path d="M16.2469 13.9143H15.5026C15.4058 13.9143 15.3276 13.9925 15.3276 14.0893V15.2473C15.3276 15.344 15.4058 15.4223 15.5026 15.4223H16.2469C16.3436 15.4223 16.4219 15.344 16.4219 15.2473V14.0893C16.4219 13.9927 16.3436 13.9143 16.2469 13.9143ZM16.0719 15.0725H15.6776V14.2645H16.0719V15.0725Z" fill="#12020A"/>
    <path d="M14.5179 13.9143H13.7736C13.6768 13.9143 13.5986 13.9925 13.5986 14.0893V15.2473C13.5986 15.344 13.6768 15.4223 13.7736 15.4223H14.5179C14.6146 15.4223 14.6929 15.344 14.6929 15.2473V14.0893C14.6929 13.9927 14.6147 13.9143 14.5179 13.9143ZM14.3429 15.0725H13.9486V14.2645H14.3429V15.0725Z" fill="#12020A"/>
    <path d="M12.789 13.9143H12.0448C11.948 13.9143 11.8698 13.9925 11.8698 14.0893V15.2473C11.8698 15.344 11.948 15.4223 12.0448 15.4223H12.789C12.8858 15.4223 12.964 15.344 12.964 15.2473V14.0893C12.964 13.9927 12.8858 13.9143 12.789 13.9143ZM12.614 15.0725H12.2198V14.2645H12.614V15.0725Z" fill="#12020A"/>
    <path d="M21.825 24.7687H20.9127C20.9127 24.7685 20.9127 24.7685 20.9127 24.7684L20.909 23.6232C21.5238 23.5416 21.9993 23.0459 21.9993 22.4468C21.9993 22.2083 21.924 21.978 21.7821 21.7816C21.7795 21.778 21.777 21.7745 21.7742 21.7708C21.8147 21.6619 21.8352 21.5486 21.8352 21.4325C21.8352 21.2216 21.7662 21.0162 21.6395 20.8438C21.6698 20.7556 21.6852 20.6641 21.6852 20.5705C21.6852 20.5551 21.6847 20.5397 21.6839 20.5248C21.6584 20.0471 21.2398 19.6728 20.7307 19.6728C20.2043 19.6728 19.7763 20.0754 19.7763 20.5705C19.7763 20.6641 19.7915 20.7557 19.8218 20.8439C19.6949 21.0162 19.6261 21.2215 19.6261 21.4326C19.6261 21.5484 19.6466 21.6618 19.6872 21.7708C19.5414 21.9684 19.4622 22.2047 19.4622 22.4467C19.4622 23.0476 19.9404 23.5445 20.5587 23.6237L20.5624 24.7686H19.4879V24.0312C19.4879 23.9345 19.4097 23.8563 19.3129 23.8563H19.1377V18.5247H19.507C19.6037 18.5247 19.682 18.4465 19.682 18.3497C19.682 18.2529 19.6037 18.1747 19.507 18.1747H19.1377V13.2269H19.3747C19.4714 13.2269 19.5497 13.1487 19.5497 13.0519V12.175C19.5497 12.0782 19.4714 12 19.3747 12H10.6684C10.5716 12 10.4934 12.0782 10.4934 12.175V13.0519C10.4934 13.1487 10.5716 13.2269 10.6684 13.2269H10.9053V18.1747H10.604C10.5072 18.1747 10.429 18.2529 10.429 18.3497C10.429 18.4465 10.5072 18.5247 10.604 18.5247H10.9053V23.8563H10.7302C10.6334 23.8563 10.5552 23.9345 10.5552 24.0312V24.7687H9.44987C9.44987 24.7685 9.44987 24.7685 9.44987 24.7684L9.44618 23.6232C10.0617 23.5416 10.5371 23.046 10.5371 22.447C10.5371 22.2085 10.4619 21.9782 10.3199 21.7819C10.3173 21.7782 10.3149 21.7747 10.3121 21.771C10.3525 21.6622 10.373 21.5488 10.373 21.4327C10.373 21.2219 10.3041 21.0164 10.1773 20.844C10.2076 20.7558 10.223 20.6643 10.223 20.5707C10.223 20.5553 10.2225 20.5399 10.2218 20.525C10.1962 20.0473 9.77762 19.673 9.26854 19.673C8.74214 19.673 8.31408 20.0756 8.31408 20.5707C8.31408 20.6643 8.32929 20.7559 8.35957 20.8441C8.2327 21.0164 8.16393 21.2217 8.16393 21.4328C8.16393 21.5486 8.1844 21.662 8.225 21.771C8.07926 21.9685 8 22.2048 8 22.4468C8 23.0478 8.47828 23.5446 9.09655 23.6239L9.10021 24.7687H8.175C8.07824 24.7687 8 24.8469 8 24.9437V25.825C8 25.9218 8.07824 26 8.175 26H21.825C21.9218 26 22 25.9218 22 25.825V24.9437C22 24.8469 21.9218 24.7687 21.825 24.7687ZM20.5538 22.199L20.5573 23.2702C20.1334 23.1958 19.8118 22.8555 19.8118 22.447C19.8118 22.2538 19.8856 22.065 20.0199 21.9159C20.068 21.862 20.0785 21.7841 20.0456 21.7197C19.9992 21.6282 19.9758 21.5318 19.9758 21.4329C19.9758 21.2724 20.0384 21.116 20.1522 20.9924C20.2015 20.9387 20.2125 20.8605 20.18 20.7954C20.1441 20.724 20.1259 20.6483 20.1259 20.5708C20.1259 20.2688 20.3972 20.0231 20.7304 20.0231C21.0535 20.0231 21.3186 20.2518 21.3341 20.5444L21.3348 20.5708C21.3348 20.6482 21.3166 20.7238 21.2806 20.7954C21.248 20.8605 21.2591 20.9387 21.3084 20.9924C21.422 21.116 21.4848 21.2724 21.4848 21.4329C21.4848 21.5318 21.4614 21.6282 21.4152 21.7197C21.3822 21.7841 21.3928 21.862 21.4411 21.9159C21.461 21.9383 21.4801 21.9616 21.4978 21.9864C21.5966 22.1233 21.649 22.2825 21.649 22.447C21.6493 22.8544 21.3294 23.1943 20.9073 23.2699L20.9038 22.198C20.9035 22.1014 20.8252 22.0235 20.7288 22.0235C20.7287 22.0235 20.7285 22.0235 20.7283 22.0235C20.6315 22.0238 20.5534 22.1024 20.5538 22.199ZM10.8431 12.8769V12.35H19.1993V12.8769H10.8431ZM16.7692 21.1934C16.2274 21.1934 15.7868 21.6343 15.7868 22.1761V23.8563H11.2548V18.5247H18.7873V23.8563H17.7519V22.1761C17.7519 21.6341 17.3111 21.1934 16.7692 21.1934ZM17.4019 22.1761V23.8563H16.1368V22.1761C16.1368 21.8273 16.4205 21.5434 16.7693 21.5434C17.118 21.5434 17.4019 21.8273 17.4019 22.1761ZM11.2548 18.1747V13.2269H18.7873V18.1747H11.2548ZM10.9048 24.2062H19.1377V24.7687H10.9048V24.2062ZM9.09095 22.199L9.09443 23.2702C8.67095 23.1958 8.34928 22.8555 8.34928 22.4468C8.34928 22.2536 8.42314 22.0648 8.55737 21.9157C8.60549 21.8618 8.61599 21.7839 8.58311 21.7195C8.53672 21.628 8.51328 21.5316 8.51328 21.4327C8.51328 21.2722 8.57593 21.1158 8.68968 20.9922C8.73903 20.9385 8.75004 20.8602 8.7175 20.7952C8.68161 20.7238 8.66343 20.6481 8.66343 20.5706C8.66343 20.2686 8.93468 20.0229 9.2679 20.0229C9.59093 20.0229 9.85606 20.2516 9.87165 20.5442L9.87233 20.5706C9.87233 20.648 9.85415 20.7236 9.81809 20.7952C9.78555 20.8603 9.79655 20.9385 9.84591 20.9922C9.95949 21.1158 10.0223 21.2722 10.0223 21.4327C10.0223 21.5316 9.99886 21.628 9.95265 21.7195C9.91974 21.7839 9.93026 21.8618 9.97856 21.9157C9.99852 21.9381 10.0176 21.9614 10.0353 21.9862C10.1341 22.1231 10.1865 22.2823 10.1865 22.4468C10.1865 22.8544 9.86659 23.1942 9.44447 23.2698L9.44098 22.198C9.44064 22.1014 9.3624 22.0235 9.26598 22.0235C9.26581 22.0235 9.26564 22.0235 9.26547 22.0235C9.16864 22.0238 9.09061 22.1024 9.09095 22.199ZM21.6493 25.65H8.34932V25.1187H21.6493V25.65Z" fill="#12020A"/>
  </g>
</svg>
