<svg width="100%" height="100%" viewBox="0 0 30 30" fill="none" xmlns="http://www.w3.org/2000/svg">
<rect x="0.5" y="0.499023" width="29" height="29" rx="14.5" fill="#F9F5F7"/>
<rect x="0.5" y="0.499023" width="29" height="29" rx="14.5" stroke="#12020A"/>
<path d="M22 13.1991C22 17.6929 17.1534 22.3729 15.5259 23.8183C15.3743 23.9356 15.1897 23.999 15 23.999C14.8103 23.999 14.6257 23.9356 14.4741 23.8183C12.8466 22.3729 8 17.6929 8 13.1991C8 11.2895 8.7375 9.45816 10.0503 8.10788C11.363 6.7576 13.1435 5.99902 15 5.99902C16.8565 5.99902 18.637 6.7576 19.9497 8.10788C21.2625 9.45816 22 11.2895 22 13.1991Z" stroke="#12020A" stroke-linecap="round" stroke-linejoin="round"/>
<path d="M15 15.999C16.6569 15.999 18 14.8797 18 13.499C18 12.1183 16.6569 10.999 15 10.999C13.3431 10.999 12 12.1183 12 13.499C12 14.8797 13.3431 15.999 15 15.999Z" stroke="#12020A" stroke-linecap="round" stroke-linejoin="round"/>
</svg>
