<svg width="100%" height="100%" viewBox="0 0 75 75" fill="none" xmlns="http://www.w3.org/2000/svg">
	<rect x="0.5" y="0.5" width="74" height="74" rx="37" fill="#F9F5F7" />
	<rect x="0.5" y="0.5" width="74" height="74" rx="37" stroke="#12020A" />
	<path
		d="M54.1666 33.3333C54.1666 43.7354 42.627 54.5687 38.752 57.9146C38.391 58.186 37.9516 58.3328 37.4999 58.3328C37.0483 58.3328 36.6088 58.186 36.2478 57.9146C32.3728 54.5687 20.8333 43.7354 20.8333 33.3333C20.8333 28.913 22.5892 24.6738 25.7148 21.5482C28.8404 18.4226 33.0796 16.6667 37.4999 16.6667C41.9202 16.6667 46.1594 18.4226 49.285 21.5482C52.4106 24.6738 54.1666 28.913 54.1666 33.3333Z"
		stroke="#12020A"
		stroke-width="2"
		stroke-linecap="round"
		stroke-linejoin="round"
	/>
	<path
		d="M37.5 39.5833C40.9518 39.5833 43.75 36.7851 43.75 33.3333C43.75 29.8816 40.9518 27.0833 37.5 27.0833C34.0482 27.0833 31.25 29.8816 31.25 33.3333C31.25 36.7851 34.0482 39.5833 37.5 39.5833Z"
		stroke="#12020A"
		stroke-width="2"
		stroke-linecap="round"
		stroke-linejoin="round"
	/>
</svg>
