<svg width="100%" height="100%" viewBox="0 0 30 30" fill="none" xmlns="http://www.w3.org/2000/svg">
<rect x="0.5" y="0.499023" width="29" height="29" rx="14.5" fill="#F9F5F7"/>
<rect x="0.5" y="0.499023" width="29" height="29" rx="14.5" stroke="#12020A"/>
<path d="M20.0894 14.2312L20.0894 23.5109" stroke="#12020A" stroke-linecap="round" stroke-linejoin="round"/>
<mask id="path-3-inside-1_401_3785" fill="white">
<path fill-rule="evenodd" clip-rule="evenodd" d="M22.8592 8.38421C22.8592 8.63012 22.8256 8.86817 22.7626 9.09401C23.1009 9.51756 23.2988 10.03 23.2988 10.5821C23.2988 11.1094 23.1182 11.6007 22.8071 12.0128C23.3852 12.5611 23.7384 13.2937 23.7384 14.0985C23.7384 15.7979 22.164 17.1755 20.2218 17.1755C18.2797 17.1755 16.7053 15.7979 16.7053 14.0985C16.7053 13.2937 17.0585 12.5611 17.6365 12.0128C17.3255 11.6007 17.1449 11.1094 17.1449 10.5821C17.1449 10.03 17.3428 9.51757 17.6811 9.09402C17.6181 8.86818 17.5845 8.63013 17.5845 8.38421C17.5845 6.92762 18.7653 5.74683 20.2218 5.74683C21.6784 5.74683 22.8592 6.92762 22.8592 8.38421Z"/>
</mask>
<path d="M22.7626 9.09401L21.7993 8.82547L21.662 9.31831L21.9813 9.71808L22.7626 9.09401ZM22.8071 12.0128L22.009 11.4103L21.4707 12.1234L22.119 12.7383L22.8071 12.0128ZM17.6365 12.0128L18.3247 12.7383L18.973 12.1234L18.4347 11.4103L17.6365 12.0128ZM17.6811 9.09402L18.4624 9.71809L18.7817 9.31832L18.6443 8.82548L17.6811 9.09402ZM23.7259 9.36254C23.813 9.05011 23.8592 8.72175 23.8592 8.38421H21.8592C21.8592 8.53849 21.8382 8.68623 21.7993 8.82547L23.7259 9.36254ZM24.2988 10.5821C24.2988 9.78285 24.0106 9.05411 23.544 8.46993L21.9813 9.71808C22.1912 9.98101 22.2988 10.2772 22.2988 10.5821H24.2988ZM23.6053 12.6152C24.036 12.0447 24.2988 11.345 24.2988 10.5821H22.2988C22.2988 10.8738 22.2005 11.1567 22.009 11.4103L23.6053 12.6152ZM22.119 12.7383C22.5214 13.12 22.7384 13.5988 22.7384 14.0985H24.7384C24.7384 12.9887 24.2491 12.0022 23.4953 11.2872L22.119 12.7383ZM22.7384 14.0985C22.7384 15.1244 21.7413 16.1755 20.2218 16.1755V18.1755C22.5866 18.1755 24.7384 16.4714 24.7384 14.0985H22.7384ZM20.2218 16.1755C18.7024 16.1755 17.7053 15.1244 17.7053 14.0985H15.7053C15.7053 16.4714 17.857 18.1755 20.2218 18.1755V16.1755ZM17.7053 14.0985C17.7053 13.5988 17.9223 13.12 18.3247 12.7383L16.9484 11.2872C16.1946 12.0022 15.7053 12.9887 15.7053 14.0985H17.7053ZM16.1449 10.5821C16.1449 11.345 16.4077 12.0447 16.8384 12.6152L18.4347 11.4103C18.2432 11.1566 18.1449 10.8738 18.1449 10.5821H16.1449ZM16.8997 8.46994C16.4331 9.05413 16.1449 9.78286 16.1449 10.5821H18.1449C18.1449 10.2772 18.2524 9.98101 18.4624 9.71809L16.8997 8.46994ZM16.5845 8.38421C16.5845 8.72176 16.6307 9.05012 16.7178 9.36255L18.6443 8.82548C18.6055 8.68624 18.5845 8.5385 18.5845 8.38421H16.5845ZM20.2218 4.74683C18.213 4.74683 16.5845 6.37534 16.5845 8.38421H18.5845C18.5845 7.47991 19.3175 6.74683 20.2218 6.74683V4.74683ZM23.8592 8.38421C23.8592 6.37534 22.2307 4.74683 20.2218 4.74683V6.74683C21.1261 6.74683 21.8592 7.47991 21.8592 8.38421H23.8592Z" fill="#12020A" mask="url(#path-3-inside-1_401_3785)"/>
<rect x="6.5" y="19.499" width="9" height="2" rx="0.5" stroke="#12020A" stroke-linejoin="round"/>
<rect x="6.5" y="14.499" width="9" height="3" rx="0.5" stroke="#12020A" stroke-linejoin="round"/>
<line x1="7.5" y1="17.999" x2="7.5" y2="19.999" stroke="#12020A"/>
<line x1="14.5" y1="17.999" x2="14.5" y2="19.999" stroke="#12020A"/>
<line x1="14.5" y1="21.999" x2="14.5" y2="23.999" stroke="#12020A"/>
<line x1="7.5" y1="21.999" x2="7.5" y2="23.999" stroke="#12020A"/>
<path d="M6 23.999H23" stroke="#12020A" stroke-linecap="round"/>
</svg>
