<svg width="100%" height="100%" viewBox="0 0 75 75" fill="none" xmlns="http://www.w3.org/2000/svg">
	<rect x="0.5" y="0.5" width="74" height="74" rx="37" fill="#F9F5F7" />
	<rect x="0.5" y="0.5" width="74" height="74" rx="37" stroke="#12020A" />
	<g clip-path="url(#clip0_421_206791)">
		<path
			d="M47 35.5V55"
			stroke="#12020A"
			stroke-width="2"
			stroke-linecap="round"
			stroke-linejoin="round"
		/>
		<mask id="path-3-inside-1_421_206791" fill="white">
			<path
				fill-rule="evenodd"
				clip-rule="evenodd"
				d="M53.6316 21.1316C53.6316 21.7499 53.547 22.3484 53.3887 22.9163C54.2393 23.9813 54.7369 25.2698 54.7369 26.6579C54.7369 27.984 54.2828 29.2191 53.5006 30.2554C54.9542 31.6341 55.8422 33.4763 55.8422 35.5C55.8422 39.7729 51.8834 43.2368 47.0001 43.2368C42.1167 43.2368 38.158 39.7729 38.158 35.5C38.158 33.4763 39.0459 31.6341 40.4995 30.2554C39.7173 29.2191 39.2632 27.984 39.2632 26.6579C39.2632 25.2698 39.7608 23.9813 40.6114 22.9163C40.4531 22.3484 40.3685 21.7499 40.3685 21.1316C40.3685 17.4691 43.3375 14.5 47.0001 14.5C50.6626 14.5 53.6316 17.4691 53.6316 21.1316Z"
			/>
		</mask>
		<path
			d="M53.3887 22.9163L51.4622 22.3792L51.1874 23.3649L51.826 24.1644L53.3887 22.9163ZM53.5006 30.2554L51.9043 29.0505L50.8278 30.4767L52.1243 31.7065L53.5006 30.2554ZM40.4995 30.2554L41.8758 31.7065L43.1723 30.4767L42.0958 29.0505L40.4995 30.2554ZM40.6114 22.9163L42.1741 24.1644L42.8127 23.3649L42.5379 22.3792L40.6114 22.9163ZM55.3153 23.4533C55.5218 22.7123 55.6316 21.9331 55.6316 21.1316H51.6316C51.6316 21.5666 51.5722 21.9846 51.4622 22.3792L55.3153 23.4533ZM56.7369 26.6579C56.7369 24.7755 56.0587 23.0544 54.9515 21.6681L51.826 24.1644C52.42 24.9082 52.7369 25.7641 52.7369 26.6579H56.7369ZM55.097 31.4603C56.1183 30.1072 56.7369 28.4552 56.7369 26.6579H52.7369C52.7369 27.5128 52.4473 28.3311 51.9043 29.0505L55.097 31.4603ZM52.1243 31.7065C53.2265 32.7519 53.8422 34.0864 53.8422 35.5H57.8422C57.8422 32.8662 56.6819 30.5163 54.877 28.8043L52.1243 31.7065ZM53.8422 35.5C53.8422 38.4259 51.0381 41.2368 47.0001 41.2368V45.2368C52.7288 45.2368 57.8422 41.12 57.8422 35.5H53.8422ZM47.0001 41.2368C42.9621 41.2368 40.158 38.4259 40.158 35.5H36.158C36.158 41.12 41.2713 45.2368 47.0001 45.2368V41.2368ZM40.158 35.5C40.158 34.0864 40.7736 32.7519 41.8758 31.7065L39.1231 28.8043C37.3182 30.5163 36.158 32.8662 36.158 35.5H40.158ZM37.2632 26.6579C37.2632 28.4552 37.8818 30.1072 38.9032 31.4603L42.0958 29.0505C41.5528 28.3311 41.2632 27.5128 41.2632 26.6579H37.2632ZM39.0487 21.6681C37.9415 23.0544 37.2632 24.7755 37.2632 26.6579H41.2632C41.2632 25.7641 41.5801 24.9082 42.1741 24.1644L39.0487 21.6681ZM38.3685 21.1316C38.3685 21.9331 38.4783 22.7123 38.6849 23.4533L42.5379 22.3792C42.4279 21.9846 42.3685 21.5666 42.3685 21.1316H38.3685ZM47.0001 12.5C42.233 12.5 38.3685 16.3645 38.3685 21.1316H42.3685C42.3685 18.5736 44.4421 16.5 47.0001 16.5V12.5ZM55.6316 21.1316C55.6316 16.3645 51.7671 12.5 47.0001 12.5V16.5C49.558 16.5 51.6316 18.5736 51.6316 21.1316H55.6316Z"
			fill="#12020A"
			mask="url(#path-3-inside-1_421_206791)"
		/>
		<rect
			x="14.5"
			y="52"
			width="22"
			height="3"
			rx="1"
			stroke="#12020A"
			stroke-width="2"
			stroke-linejoin="round"
		/>
		<rect
			x="14.5"
			y="40.5"
			width="22"
			height="6"
			rx="1"
			stroke="#12020A"
			stroke-width="2"
			stroke-linejoin="round"
		/>
		<line x1="17.5" y1="46.5" x2="17.5" y2="51" stroke="#12020A" stroke-width="2" />
		<line x1="34" y1="46.5" x2="34" y2="51" stroke="#12020A" stroke-width="2" />
		<line x1="34" y1="55.5" x2="34" y2="59.5" stroke="#12020A" stroke-width="2" />
		<line x1="17.5" y1="55.5" x2="17.5" y2="59.5" stroke="#12020A" stroke-width="2" />
		<path d="M13 59.5H56.5" stroke="#12020A" stroke-width="2" stroke-linecap="round" />
		<path
			fill-rule="evenodd"
			clip-rule="evenodd"
			d="M47.3557 57.0988L46.2502 57.01C46.1683 57.0034 46.0849 57 46 57C44.3913 57 43.5 58.1104 43.5 59C43.5 59.3255 43.6193 59.6806 43.8495 60H41.6418C41.5492 59.6804 41.5 59.3453 41.5 59C41.5 56.7909 43.5147 55 46 55C46.1384 55 46.2753 55.0056 46.4105 55.0164C47.3155 53.7967 48.8098 53 50.5 53C53.2614 53 55.5 55.1266 55.5 57.75C55.5 58.5641 55.2844 59.3303 54.9046 60H52.2283C53.0168 59.4857 53.5 58.6366 53.5 57.75C53.5 56.3266 52.2548 55 50.5 55C49.4443 55 48.5452 55.4958 48.0166 56.2082L47.3557 57.0988ZM48.5473 60L48.4424 59.962L48.386 60H48.5473Z"
			fill="#12020A"
		/>
	</g>
	<defs>
		<clipPath id="clip0_421_206791">
			<rect width="50" height="50" fill="white" transform="translate(12.5 12.5)" />
		</clipPath>
	</defs>
</svg>
