<svg width="100%" height="100%" viewBox="0 0 30 30" fill="none" xmlns="http://www.w3.org/2000/svg">
<rect x="0.5" y="0.499023" width="29" height="29" rx="14.5" fill="#F9F5F7"/>
<rect x="0.5" y="0.499023" width="29" height="29" rx="14.5" stroke="#12020A"/>
<path d="M20.25 10.999C20.7141 10.999 21.1592 10.8234 21.4874 10.5109C21.8156 10.1983 22 9.77438 22 9.33236C22 8.89033 21.8156 8.46641 21.4874 8.15385C21.1592 7.84128 20.7141 7.66569 20.25 7.66569C20.25 7.22366 20.0656 6.79974 19.7374 6.48718C19.4092 6.17462 18.9641 5.99902 18.5 5.99902C18.0359 5.99902 17.5908 6.17462 17.2626 6.48718C16.9344 6.79974 16.75 7.22366 16.75 7.66569C16.75 7.22366 16.5656 6.79974 16.2374 6.48718C15.9092 6.17462 15.4641 5.99902 15 5.99902C14.5359 5.99902 14.0908 6.17462 13.7626 6.48718C13.4344 6.79974 13.25 7.22366 13.25 7.66569C13.25 7.22366 13.0656 6.79974 12.7374 6.48718C12.4092 6.17462 11.9641 5.99902 11.5 5.99902C11.0359 5.99902 10.5908 6.17462 10.2626 6.48718C9.93437 6.79974 9.75 7.22366 9.75 7.66569C9.28587 7.66569 8.84075 7.84128 8.51256 8.15385C8.18437 8.46641 8 8.89033 8 9.33236C8 9.77438 8.18437 10.1983 8.51256 10.5109C8.84075 10.8234 9.28587 10.999 9.75 10.999" stroke="#12020A" stroke-linecap="round" stroke-linejoin="round"/>
<path d="M13 23.999L12 10.999" stroke="#12020A" stroke-linecap="round" stroke-linejoin="round"/>
<path d="M17 23.999L18 10.999" stroke="#12020A" stroke-linecap="round" stroke-linejoin="round"/>
<path d="M22.26 10.999C22.7138 10.999 23.0767 11.3705 22.986 11.9276L20.6265 23.0705C20.5358 23.5347 19.9913 23.999 19.5375 23.999H10.4625C9.918 23.999 9.46425 23.6276 9.3735 23.0705L7.014 11.9276C6.92325 11.3705 7.28625 10.999 7.74 10.999H22.26Z" stroke="#12020A" stroke-linecap="round" stroke-linejoin="round"/>
</svg>
