<svg width="100%" height="100%" viewBox="0 0 75 75" fill="none" xmlns="http://www.w3.org/2000/svg">
	<rect x="0.5" y="0.5" width="74" height="74" rx="37" fill="#F9F5F7" />
	<rect x="0.5" y="0.5" width="74" height="74" rx="37" stroke="#12020A" />
	<path
		d="M49.9999 29.1667C51.105 29.1667 52.1648 28.7277 52.9462 27.9463C53.7276 27.1649 54.1666 26.1051 54.1666 25C54.1666 23.8949 53.7276 22.8351 52.9462 22.0537C52.1648 21.2723 51.105 20.8333 49.9999 20.8333C49.9999 19.7283 49.5609 18.6685 48.7795 17.8871C47.9981 17.1057 46.9383 16.6667 45.8333 16.6667C44.7282 16.6667 43.6684 17.1057 42.887 17.8871C42.1056 18.6685 41.6666 19.7283 41.6666 20.8333C41.6666 19.7283 41.2276 18.6685 40.4462 17.8871C39.6648 17.1057 38.605 16.6667 37.4999 16.6667C36.3948 16.6667 35.335 17.1057 34.5536 17.8871C33.7722 18.6685 33.3333 19.7283 33.3333 20.8333C33.3333 19.7283 32.8943 18.6685 32.1129 17.8871C31.3315 17.1057 30.2717 16.6667 29.1666 16.6667C28.0615 16.6667 27.0017 17.1057 26.2203 17.8871C25.4389 18.6685 24.9999 19.7283 24.9999 20.8333C23.8948 20.8333 22.835 21.2723 22.0536 22.0537C21.2722 22.8351 20.8333 23.8949 20.8333 25C20.8333 26.1051 21.2722 27.1649 22.0536 27.9463C22.835 28.7277 23.8948 29.1667 24.9999 29.1667"
		stroke="#12020A"
		stroke-width="2"
		stroke-linecap="round"
		stroke-linejoin="round"
	/>
	<path
		d="M33.3333 58.3333L31.25 29.1667"
		stroke="#12020A"
		stroke-width="2"
		stroke-linecap="round"
		stroke-linejoin="round"
	/>
	<path
		d="M41.6667 58.3333L43.7501 29.1667"
		stroke="#12020A"
		stroke-width="2"
		stroke-linecap="round"
		stroke-linejoin="round"
	/>
	<path
		d="M54.1667 29.1667C55.2083 29.1667 56.0417 30 55.8333 31.25L50.4167 56.25C50.2083 57.2917 48.9583 58.3333 47.9167 58.3333H27.0833C25.8333 58.3333 24.7917 57.5 24.5833 56.25L19.1667 31.25C18.9583 30 19.7917 29.1667 20.8333 29.1667H54.1667Z"
		stroke="#12020A"
		stroke-width="2"
		stroke-linecap="round"
		stroke-linejoin="round"
	/>
</svg>
