<svg width="100%" height="100%" viewBox="0 0 75 75" fill="none" xmlns="http://www.w3.org/2000/svg">
	<rect x="0.5" y="0.5" width="74" height="74" rx="37" fill="#F9F5F7" />
	<rect x="0.5" y="0.5" width="74" height="74" rx="37" stroke="#12020A" />
	<path
		d="M49.5833 52.5L45.8333 35.4167L53.125 28.125C56.25 25 57.2917 20.8333 56.25 18.75C54.1667 17.7083 50 18.75 46.875 21.875L39.5833 29.1667L22.5 25.4167C21.4583 25.2083 20.625 25.625 20.2083 26.4583L19.5833 27.5C19.1667 28.5417 19.375 29.5833 20.2083 30.2083L31.25 37.5L27.0833 43.75H20.8333L18.75 45.8333L25 50L29.1667 56.25L31.25 54.1667V47.9167L37.5 43.75L44.7917 54.7917C45.4167 55.625 46.4583 55.8333 47.5 55.4167L48.5417 55C49.375 54.375 49.7917 53.5417 49.5833 52.5Z"
		stroke="#12020A"
		stroke-width="2"
		stroke-linecap="round"
		stroke-linejoin="round"
	/>
</svg>
