<svg width="100%" height="100%" viewBox="0 0 30 30" fill="none" xmlns="http://www.w3.org/2000/svg">
<rect x="0.5" y="0.499023" width="29" height="29" rx="14.5" fill="#F9F5F7"/>
<rect x="0.5" y="0.499023" width="29" height="29" rx="14.5" stroke="#12020A"/>
<path d="M20.0199 21.4155L18.4364 14.2018L21.5155 11.1227C22.8351 9.80315 23.2749 8.0437 22.8351 7.16397C21.9553 6.72411 20.1959 7.16397 18.8763 8.48356L15.7973 11.5626L8.58351 9.97909C8.14364 9.89112 7.79175 10.0671 7.61581 10.419L7.35189 10.8588C7.17595 11.2987 7.26392 11.7385 7.61581 12.0025L12.2784 15.0815L10.5189 17.7207H7.87973L7 18.6004L9.63918 20.3598L11.3986 22.999L12.2784 22.1193V19.4801L14.9175 17.7207L17.9966 22.3832C18.2605 22.7351 18.7003 22.8231 19.1402 22.6471L19.5801 22.4712C19.932 22.2073 20.1079 21.8554 20.0199 21.4155Z" stroke="#12020A" stroke-linecap="round" stroke-linejoin="round"/>
</svg>
