<svg width="100%" height="100%" viewBox="0 0 75 75" fill="none" xmlns="http://www.w3.org/2000/svg">
	<rect x="0.5" y="0.5" width="74" height="74" rx="37" fill="#F9F5F7" />
	<rect x="0.5" y="0.5" width="74" height="74" rx="37" stroke="#12020A" />
	<path
		fill-rule="evenodd"
		clip-rule="evenodd"
		d="M21.6428 36.0783L17.9219 59.5201C17.8543 59.9436 18.1439 60.3425 18.5678 60.4096C18.9913 60.4768 19.3902 60.1873 19.4573 59.7637L20.457 53.4664H34.3043L35.304 59.7637C35.3715 60.1873 35.77 60.4768 36.1935 60.4096C36.6174 60.3425 36.907 59.9436 36.8394 59.5201L33.1174 36.0693C34.2394 35.941 35.1111 34.9884 35.1111 33.832V33.3048C35.1111 32.0611 34.1029 31.0529 32.8588 31.0529H21.8021C20.5581 31.0529 19.5499 32.0611 19.5499 33.3048V33.832C19.5499 35.022 20.473 35.9966 21.6428 36.0783ZM49.2002 58.8645H46.5014C46.0723 58.8645 45.7237 59.2126 45.7237 59.6417C45.7237 60.0708 46.0723 60.419 46.5014 60.419H53.454C53.8831 60.419 54.2316 60.0708 54.2316 59.6417C54.2316 59.2126 53.8831 58.8645 53.454 58.8645H50.7551V30.7007L55.5118 35.4574C55.8152 35.7608 56.3077 35.7608 56.6111 35.4574C56.9144 35.154 56.9144 34.6615 56.6111 34.3582L50.7551 28.5018V24.5011C50.7551 24.072 50.4066 23.7234 49.9775 23.7234C49.5487 23.7234 49.2002 24.072 49.2002 24.5011V26.947L42.1626 19.9096L47.026 18.9734C47.392 18.9029 47.6566 18.5828 47.6566 18.21C47.6566 17.8376 47.392 17.5171 47.026 17.447L37.6898 15.6499C37.2958 15.4466 36.8488 15.332 36.3752 15.332C34.7868 15.332 33.4973 16.6216 33.4973 18.21C33.4973 19.7984 34.7868 21.0884 36.3752 21.0884C36.8488 21.0884 37.2958 20.9734 37.6898 20.7701L40.3189 20.2645L49.2002 29.1458V58.8645ZM22.1122 43.0369L20.7036 51.9115H34.0577L32.6491 43.0369H22.1122ZM32.4021 41.482C31.9051 38.3507 31.5454 36.0839 31.5454 36.0839H23.2159L22.3592 41.482H32.4021ZM33.5562 33.3048V33.832C33.5562 34.2171 33.2439 34.529 32.8588 34.529H21.8021C21.4167 34.529 21.1047 34.2171 21.1047 33.832V33.3048C21.1047 32.9197 21.4167 32.6074 21.8017 32.6074H32.8588C33.2439 32.6074 33.5562 32.9197 33.5562 33.3048ZM36.9014 16.9955C36.7402 16.9253 36.5622 16.8869 36.3752 16.8869C35.645 16.8869 35.0521 17.4798 35.0521 18.21C35.0521 18.9406 35.645 19.5335 36.3752 19.5335C36.5585 19.5335 36.7327 19.4966 36.8909 19.429C37.3991 18.6167 37.4402 17.8055 36.9014 16.9955ZM38.792 17.4455C38.9122 17.9559 38.9047 18.4667 38.7767 18.9779L42.7659 18.21L38.792 17.4455Z"
		fill="#12020A"
		stroke="#12020A"
		stroke-width="0.5"
	/>
</svg>
