<svg width="100%" height="100%" viewBox="0 0 30 30" fill="none" xmlns="http://www.w3.org/2000/svg">
<rect x="0.5" y="0.499023" width="29" height="29" rx="14.5" fill="#F9F5F7"/>
<rect x="0.5" y="0.499023" width="29" height="29" rx="14.5" stroke="#12020A"/>
<path fill-rule="evenodd" clip-rule="evenodd" d="M8.53342 14.2815L7.00402 23.64C6.97626 23.8091 7.09527 23.9683 7.2695 23.9952C7.44358 24.022 7.60753 23.9064 7.63514 23.7373L8.04601 21.2232H13.7377L14.1486 23.7373C14.1764 23.9064 14.3402 24.022 14.5142 23.9952C14.6885 23.9683 14.8075 23.8091 14.7797 23.64L13.2499 14.2779C13.711 14.2266 14.0693 13.8463 14.0693 13.3847V13.1742C14.0693 12.6777 13.6549 12.2752 13.1436 12.2752H8.59891C8.08758 12.2752 7.67317 12.6777 7.67317 13.1742V13.3847C7.67317 13.8597 8.05261 14.2488 8.53342 14.2815ZM19.8604 23.3783H18.7511C18.5747 23.3783 18.4315 23.5173 18.4315 23.6886C18.4315 23.8599 18.5747 23.9989 18.7511 23.9989H21.6088C21.7852 23.9989 21.9284 23.8599 21.9284 23.6886C21.9284 23.5173 21.7852 23.3783 21.6088 23.3783H20.4995V12.1346L22.4547 14.0336C22.5793 14.1547 22.7818 14.1547 22.9065 14.0336C23.0312 13.9125 23.0312 13.7158 22.9065 13.5947L20.4995 11.2567V9.65953C20.4995 9.48823 20.3562 9.34909 20.1799 9.34909C20.0037 9.34909 19.8604 9.48823 19.8604 9.65953V10.636L16.9677 7.82652L18.9667 7.45277C19.1172 7.42462 19.2259 7.2968 19.2259 7.14799C19.2259 6.99932 19.1172 6.87136 18.9667 6.84336L15.1292 6.12594C14.9673 6.04476 14.7836 5.99902 14.5889 5.99902C13.936 5.99902 13.406 6.51385 13.406 7.14799C13.406 7.78213 13.936 8.2971 14.5889 8.2971C14.7836 8.2971 14.9673 8.25122 15.1292 8.17004L16.2099 7.96819L19.8604 11.5138V23.3783ZM8.72636 17.0595L8.14739 20.6025H13.6363L13.0574 17.0595H8.72636ZM12.9558 16.4388C12.7516 15.1887 12.6037 14.2837 12.6037 14.2837H9.18003L8.82789 16.4388H12.9558ZM13.4302 13.1742V13.3847C13.4302 13.5384 13.3018 13.663 13.1436 13.663H8.59891C8.44048 13.663 8.31226 13.5384 8.31226 13.3847V13.1742C8.31226 13.0205 8.44048 12.8958 8.59876 12.8958H13.1436C13.3018 12.8958 13.4302 13.0205 13.4302 13.1742ZM14.8052 6.66311C14.7389 6.6351 14.6658 6.61976 14.5889 6.61976C14.2888 6.61976 14.0451 6.85646 14.0451 7.14799C14.0451 7.43966 14.2888 7.67637 14.5889 7.67637C14.6642 7.67637 14.7359 7.66162 14.8009 7.63466C15.0098 7.31036 15.0266 6.98651 14.8052 6.66311ZM15.5823 6.84276C15.6317 7.04654 15.6286 7.25048 15.576 7.45456L17.2157 7.14799L15.5823 6.84276Z" fill="#12020A" stroke="#12020A" stroke-width="0.25"/>
</svg>
